<?xml version="1.0" encoding="UTF-8"?>
<svg id="Capa_1" data-name="Capa 1" xmlns="http://www.w3.org/2000/svg" xmlns:xlink="http://www.w3.org/1999/xlink" viewBox="0 0 33 32">
  <defs>
    <style>
      .cls-1 {
        fill: url(#Degradado_sin_nombre_10);
      }
    </style>
    <linearGradient id="Degradado_sin_nombre_10" data-name="Degradado sin nombre 10" x1="1.24" y1="16" x2="31.76" y2="16" gradientUnits="userSpaceOnUse">
      <stop offset="0" stop-color="#f5c230"/>
      <stop offset="0" stop-color="#ecc440"/>
      <stop offset=".32" stop-color="#fffa8a"/>
      <stop offset=".68" stop-color="#ddac17"/>
      <stop offset="1" stop-color="#ffff95"/>
    </linearGradient>
  </defs>
  <path class="cls-1" d="M29.21,11.28l-.03-.04.03-.04c.22-.34.61-.7,1.02-1.08.65-.6,1.32-1.23,1.4-1.85.1-.79-.24-1.5-.89-1.87-.64-.36-1.4-.28-2,.2-.12.1-.46.45-.82.82-1.02,1.06-1.27,1.29-1.38,1.28h-.03c-1.15-.77-2.23-1.32-3.31-1.68-.08-.03-.26-.07-.45-.12-.5-.12-.71-.18-.78-.23-.08-.07-.09-.14-.09-.2,0-.01,0-.03,0-.04-.05-.39-.03-.85,0-1.29.02-.37.04-.75.01-1.09v-.03s.09-.12.09-.12h.03c.98-.18,1.39-.97,1.36-1.68-.03-.71-.51-1.46-1.5-1.55-.66-.06-1.37-.05-2.08-.02-.63-.03-.67.89-.04.91h2.12c.45.06.64.42.63.73,0,.34-.24.7-.75.76-.36.04-.75.06-1.14.06-.49,0-.99-.02-1.47-.04-.79-.04-1.6-.07-2.33-.02h-.01s-.01,0-.01,0c-.45-.1-.66-.45-.67-.75,0-.35.23-.63.61-.73h.02s1.08,0,1.08,0c.78-.04.73-.91-.05-.87-.36,0-.71,0-1.06-.02-1,.12-1.47.92-1.48,1.62,0,.63.35,1.42,1.39,1.57h.06s0,2.83,0,2.83h-.06c-1.5.3-3.03.97-4.56,1.99l-.04.03-.04-.03c-.39-.26-.75-.65-1.12-1.06-.65-.71-1.32-1.45-2.18-1.45-.25,0-.51.06-.8.2-.43.21-.74.6-.87,1.08-.13.51-.05,1.05.24,1.48.11.16.58.61,1.03,1.05.98.95,1.16,1.15,1.14,1.25v.03c-.31.39-.58.8-.84,1.23-.36.57.4,1.04.76.47,1.38-2.39,3.6-4.22,6.36-5.11,3.95-1.28,8.16-.41,11.25,2.33,2.87,2.54,4.26,6.2,3.81,10.03-.45,3.83-2.63,7.06-6,8.88-1.69.91-3.65,1.37-5.57,1.37-1.55,0-3.07-.3-4.41-.9-.03-.01-.06-.03-.1-.04-.19-.08-.43-.17-.48-.33-.01-.04-.02-.11.04-.18.07-.11.19-.22.31-.35.11-.11.22-.23.3-.33.04-.05.12-.18.21-.33.32-.52.37-.57.42-.59h.03s.03,0,.03,0c2.59,1.13,5.54,1.01,8.09-.33,2.51-1.32,4.25-3.64,4.76-6.35.79-4.15-1.1-8.1-4.82-10.06-3.68-1.94-7.94-1.29-10.86,1.65-1.01,1.02-1.83,2.41-2.37,4.03l-.02.06h-.06c-.14-.02-.27-.04-.41-.06-.55-.08-1.13-.16-1.69-.04l-.11.02.03-.11c.13-.6.33-1.17.55-1.73.16-.56-.49-.99-.82-.32-.29.71-.54,1.45-.7,2.21v.05s-.05.01-.05.01c-2.42.63-4.4,2.38-5.3,4.67-.88,2.25-.64,4.72.67,6.78,1.14,1.79,2.91,2.99,5,3.38,2.07.38,4.22-.13,5.91-1.39l.04-.03.04.02c5.48,2.97,12.37,1.37,16.01-3.72,3.19-4.46,3.1-10.43-.22-14.85ZM10.88,9.68c-.05.04-.1.07-.13.1-.04.04-.15.17-.26.29-.29.33-.32.36-.36.37-.02,0-.05.01-.07.01-.07,0-.13-.03-.19-.09-.14-.2-.43-.46-.74-.75-.61-.56-1.29-1.2-1.3-1.65,0-.31.29-.79.62-.86.3-.07.62,0,.85.16l1.95,1.96v.02c.03.14-.13.27-.37.44ZM21.01,6.54l-.09-.02c-1.01-.18-2.1-.18-3.25,0h-.09s0-2.59,0-2.59h3.42v2.61ZM28.73,10.35v.02s-.2.09-.2.09l-1.23-1.15.08-.05c.18-.13.53-.5.89-.9.66-.72,1.12-1.19,1.36-1.25.36-.08.71.01.93.25.22.24.29.58.18.93-.08.25-.57.7-1.09,1.17-.38.35-.77.7-.9.9ZM8.79,30.49s-.07,0-.1,0c-2.37-.03-4.48-1.28-5.67-3.33-1.17-2.03-1.2-4.47-.08-6.54,1.12-2.07,3.19-3.38,5.53-3.5,2.49-.12,4.75,1.09,6.05,3.27.42.7.68,1.45.83,2.21,0,.63.9.63.9,0-.35-2.1-1.57-4.03-3.48-5.22-.32-.2-.67-.36-1-.52-.16-.08-.32-.15-.48-.23l-.06-.03.02-.06c.27-.89.64-1.69,1.11-2.38,0,0,.51-.73.66-.81.1-.05.15-.04.21.01,0,0,.02.01.03.02.08.05.16.14.26.25.2.21.46.5.68.47.09-.01.18-.08.25-.22.21-.37-.06-.6-.37-.87-.12-.1-.24-.21-.32-.32l-.04-.05.05-.05c1.37-1.25,3.21-2.02,5.05-2.11h.08s0,1.2,0,1.2c0,.03.05.08.16.14.18.08.42.11.55,0,.03-.03.14-.22.17-.28v-1.06h.08c1.39.09,2.76.53,3.94,1.27.11.07.94.63,1.02.75.07.1.05.16,0,.22,0,0-.02.02-.03.03-.07.11-.18.2-.29.3-.25.22-.49.43-.36.73.03.08.17.22.25.25.3.13.51-.11.73-.36.1-.11.19-.22.3-.29.01,0,.02-.02.03-.03.06-.05.11-.08.22,0,.13.09.69.92.75,1.03.75,1.19,1.18,2.55,1.27,3.95v.08s-1.06,0-1.06,0c-.05.03-.25.14-.28.17-.11.12-.09.35-.01.51.06.12.14.2.21.2h1.14v.08c-.1,1.86-.86,3.7-2.11,5.06l-.05.05-.05-.04c-.12-.09-.23-.22-.33-.33-.25-.29-.46-.54-.83-.38-.14.06-.22.14-.24.23-.05.28.37.68.62.93.05.05.09.09.13.12l.02.02v.02c.05.27-1.38,1.13-1.4,1.14-1.02.58-2.19.93-3.6,1.09h-.08s0-1.07,0-1.07c0-.12-.05-.21-.14-.27-.08-.06-.2-.09-.33-.09-.2,0-.41.09-.41.23v1.13h-.07c-.05,0-.1,0-.15,0-.94,0-1.83-.32-2.71-.63l-.13-.05.03-.07c.23-.61.38-1.24.44-1.87,0-.48-.88-.48-.88,0-.11.93-.42,1.85-.95,2.7-1.23,2-3.35,3.18-5.69,3.18ZM18.25,20.9c-.1-.05-.17-.13-.19-.22-.08-.29.22-.76.47-1.13.17-.26.32-.49.35-.66.06-.28.04-.77.01-1.29-.03-.59-.05-1.25.05-1.44.02-.04.16-.16.2-.17.15-.04.3-.03.41.04.11.07.18.18.21.32.07.4.08,2.28.01,2.72-.03.17-.76,1.48-.91,1.67-.21.25-.36.29-.6.17ZM13.55,21.59l-1.97,2.49c-.34.48-1.05-.02-.71-.5l2.01-2.57v-.02c.08-.21.05-.41-.08-.54-.12-.12-.29-.17-.5-.12h-.03s-4.43,5.48-4.43,5.48c-.18.08-.36.05-.49-.07l-1.96-2.09-.02-.02c-.2-.09-.41-.06-.56.08-.15.16-.18.4-.07.61l2.6,2.84c.12.1.24.15.34.15.21,0,.38-.18.54-.36l1.6-2.05c.47-.51,1.11.08.64.59l-1.86,2.36c-.57.48-1.39.44-1.92-.08-.33-.49-.84-.98-1.32-1.45-.51-.5-1.04-1.01-1.36-1.52-.22-.35-.27-.78-.14-1.17.12-.37.4-.67.76-.8.2-.08.38-.11.55-.11.66,0,1.12.53,1.59,1.09.25.29.51.6.8.82l.06.04,3.71-4.68c.22-.25.48-.48.81-.54.59-.1,1.14.13,1.45.59.3.46.29,1.06-.04,1.54Z"/>
</svg>