<?xml version="1.0" encoding="UTF-8"?>
<svg id="Capa_1" data-name="Capa 1" xmlns="http://www.w3.org/2000/svg" xmlns:xlink="http://www.w3.org/1999/xlink" viewBox="0 0 33 32">
  <defs>
    <style>
      .cls-1 {
        fill: url(#Degradado_sin_nombre_10);
      }
    </style>
    <linearGradient id="Degradado_sin_nombre_10" data-name="Degradado sin nombre 10" x1="1.49" y1="16" x2="31.51" y2="16" gradientUnits="userSpaceOnUse">
      <stop offset="0" stop-color="#f5c230"/>
      <stop offset="0" stop-color="#ecc440"/>
      <stop offset=".32" stop-color="#fffa8a"/>
      <stop offset=".68" stop-color="#ddac17"/>
      <stop offset="1" stop-color="#ffff95"/>
    </linearGradient>
  </defs>
  <path class="cls-1" d="M31.47,3.4c-.04-.11-.11-.2-.17-.28l-.02-.03c-.26-.34-1.3-1.38-1.63-1.64-.41-.31-.65-.29-1.11-.21-.38.07-2.07.49-2.38.72-.08.06-.15.13-.21.23-.2.29-.71,2.23-.73,2.58-.04.59.18.81.44,1.07.09.09.18.19.28.31l-3.91,3.98c-.63-.51-1.46-1.12-2.42-1.5-.07-.03-.25-.08-.45-.14-.22-.07-.58-.17-.72-.23l1.01-3.43s.09.02.13.03c.28.07.57.14.9-.05.2-.11,1.18-1.06,1.31-1.23.15-.21.22-.44.21-.64-.01-.24-.32-1.5-.42-1.73-.06-.15-.2-.31-.33-.4-.23-.15-1.45-.52-1.73-.55-.1-.01-.3-.03-.47.01-.29.06-1.45,1.21-1.57,1.4-.21.33-.15.62-.08.91.01.05.02.11.03.16l.02.13c.14.73.29,1.55,1.17,1.72l-1.07,3.55c-2.33-.3-4.8.57-6.51,2.3l-3.25-3.2c.29-.28.64-.63.64-1.07,0-.24-.45-1.9-.55-2.11-.07-.15-.25-.37-.4-.46-.25-.16-1.71-.55-2-.59-.33-.05-.57-.04-.88.18-.17.12-1.4,1.35-1.51,1.54-.12.21-.17.42-.14.68.04.35.37,1.6.51,1.94.07.16.22.38.38.48.3.2.82.31,1.32.41.35.07.68.14.91.23h.03s.03,0,.03,0c.48-.04.78-.34,1.06-.64l3.22,3.31c-.07.13-.28.43-.4.61-.1.15-.19.27-.22.33-1.62,2.84-1.32,6.36.73,9l-4.1,4.16c-.05-.05-.1-.1-.15-.15-.3-.32-.6-.64-1.18-.62-.34.02-2.36.58-2.62.76-.09.06-.19.16-.25.25-.21.3-.67,2.04-.72,2.39-.07.43-.07.68.22,1.05.22.28,1.48,1.56,1.75,1.73.17.1.34.16.53.18,0,0,.02,0,.03,0,.43,0,2.37-.52,2.68-.7.41-.22.51-.62.61-1,.02-.08.04-.15.06-.23v-.04c.18-.56.49-1.59.38-2.08-.05-.23-.3-.48-.51-.7-.07-.07-.15-.15-.2-.21l4.06-4.13c1.09.94,2.25,1.6,3.46,1.97l-1.01,3.46s-.09-.02-.13-.03c-.28-.07-.57-.14-.9.04-.19.11-1.13,1-1.28,1.2-.17.22-.26.42-.23.73.02.25.31,1.48.43,1.72.15.32.42.41.69.5l.11.04c.49.18,1.11.37,1.53.37.09,0,.17,0,.24-.03.24-.07,1.5-1.27,1.6-1.53.07-.17.07-.31.06-.49-.02-.27-.3-1.45-.44-1.71-.18-.35-.52-.47-.85-.56l1.07-3.56c2.37.44,4.88-.35,6.76-2.12l3.01,3.01c-.29.28-.64.63-.64,1.08,0,.24.46,1.9.55,2.11.07.16.25.37.4.46.24.16,1.71.55,2,.59.33.05.57.03.88-.18.17-.12,1.4-1.35,1.51-1.53.12-.21.17-.42.14-.68-.04-.35-.37-1.6-.51-1.94-.25-.59-1.09-.77-1.83-.92-.3-.06-.58-.12-.79-.2h-.03s-.03,0-.03,0c-.48.04-.78.34-1.06.64l-3.01-3.08c1.01-1.23,1.61-2.73,1.76-4.27,0-.55-.85-.55-.85,0-.1.9-.38,1.79-.83,2.62-1.25,2.26-3.54,3.63-6.15,3.66h-.08c-2.54,0-4.81-1.3-6.07-3.49-1.28-2.21-1.29-4.85-.03-7.08,1.24-2.2,3.49-3.55,6.01-3.6.05,0,.09,0,.14,0,2.48,0,4.72,1.28,6.02,3.43.47.78.77,1.61.92,2.45,0,.49.86.49.86,0-.13-.87-.39-1.73-.81-2.52-.24-.45-.55-.86-.85-1.26-.08-.1-.15-.2-.23-.3l3.96-3.98c.05.05.1.11.15.16.29.3.59.62,1.1.62h0c.4,0,1.88-.43,2.22-.55.75-.26.85-.62,1-1.16.02-.08.05-.17.08-.26l.03-.09c.17-.56.48-1.59.32-2.07ZM28.81,2.04h.03s.06-.01.09,0c.04,0,.07.03.11.06l.04.03c.23.16,1.31,1.19,1.45,1.39.13.19.13.29.09.53-.06.4-.34,1.47-.48,1.82-.07.17-.13.2-.33.28-.33.13-1.4.42-1.76.48-.11.02-.23.03-.32.02-.19-.06-1.11-1.07-1.45-1.45-.08-.09-.16-.17-.21-.23l.61-2.3c.07-.05.21-.1.31-.12.04-.01.07-.02.1-.03.5-.16,1.41-.44,1.71-.47ZM28.8,1.92h0s0,0,0,0h0ZM18.52,3.63l-.29-1.5,1.08-.99,1.45.46.34,1.45c-.15.2-.95.95-1.07,1.01-.21.04-.68-.13-1.05-.26-.17-.06-.33-.12-.46-.16ZM4.97,25.38c.13-.02.29-.04.39.01.2.26.49.51.76.76.29.26.58.52.77.78l.02.03c.06.08.08.11.07.15-.11.31-.18.64-.26.97-.08.35-.16.71-.28,1.02-.11.29-.17.3-.43.37-.06.02-.12.03-.19.05-.46.15-.96.26-1.44.37l-.29.07c-.62-.5-1.25-1.02-1.71-1.64.03-.64.24-1.29.44-1.92.04-.13.09-.27.13-.4.06-.06.14-.09.25-.14.34-.14,1.39-.42,1.76-.48h0ZM4.95,25.25h0s0,0,0,0h0ZM7.53,6.25l-1.32,1.33-1.9-.48c-.11-.28-.48-1.7-.48-1.85.01-.15.38-.49.53-.63l.09-.09c.13-.13.61-.57.69-.63.05-.03.07-.04.07-.04l1.84.51.47,1.89ZM14.44,28.36c.13.15.4,1.39.35,1.55-.08.1-.91.86-1.06.98-.17-.06-.37-.1-.58-.15-.31-.07-.63-.14-.83-.25q-.07-.04-.11-.14c-.05-.14-.28-1.14-.3-1.34.08-.08.19-.2.31-.33.23-.25.61-.68.77-.71.17-.03,1.32.29,1.46.4ZM25.49,25.76l1.32-1.33,1.9.48c.11.28.48,1.7.48,1.85,0,.09-.27.42-.75.84l-.05.05c-.4.36-.56.47-.62.49l-1.81-.5-.47-1.89ZM19.25,12.61c-.28.05-.54.26-.74.42-.54.44-1.05,1-1.54,1.53-.43.46-.87.94-1.32,1.34-.1-.1-.3-.31-.45-.47-.26-.28-.42-.45-.5-.51-.63-.48-1.33-.34-1.75.02-.41.36-.66,1.03-.27,1.73.19.34,1.94,2.06,2.28,2.24.25.13.5.2.74.2.27,0,.53-.08.79-.24l4.22-4.25.02-.03c.25-.51.21-1.06-.1-1.47-.31-.41-.82-.6-1.39-.51ZM19.39,13.48c.25-.05.48.03.59.21.11.18.07.41-.09.6-.56.51-1.12,1.11-1.65,1.69-.63.69-1.29,1.4-1.96,1.96-.33.28-.6.4-.95.21l-1.94-1.97c-.07-.19-.05-.35.07-.5.1-.12.19-.19.3-.19.32,0,.69.41,1.03.78.38.41.71.77,1.02.68h.03s3.56-3.46,3.56-3.46Z"/>
</svg>