<?xml version="1.0" encoding="UTF-8"?>
<svg id="Capa_1" data-name="Capa 1" xmlns="http://www.w3.org/2000/svg" xmlns:xlink="http://www.w3.org/1999/xlink" viewBox="0 0 33 32">
  <defs>
    <style>
      .cls-1 {
        fill: url(#Degradado_sin_nombre_10);
      }
    </style>
    <linearGradient id="Degradado_sin_nombre_10" data-name="Degradado sin nombre 10" x1=".17" y1="16" x2="32.83" y2="16" gradientUnits="userSpaceOnUse">
      <stop offset="0" stop-color="#f5c230"/>
      <stop offset="0" stop-color="#ecc440"/>
      <stop offset=".32" stop-color="#fffa8a"/>
      <stop offset=".68" stop-color="#ddac17"/>
      <stop offset="1" stop-color="#ffff95"/>
    </linearGradient>
  </defs>
  <path class="cls-1" d="M32.33,19.08c.28,0,.5-.22.5-.5v-.73c0-.52-.42-.95-.95-.95h-5.03l-2.15-1.75s0,0,0,0c-.07-.07-.17-.11-.27-.13-.05-.03-.11-.06-.17-.08l-1.57-.36.94-.96c.25-.25.34-.61.23-.95-.11-.34-.39-.58-.74-.63l-3.97-.66-1.9-3.6c-.16-.31-.47-.51-.82-.51-.33.02-.67.19-.84.5l-1.85,3.58-.43.07c-.27.05-.46.3-.41.58.05.27.31.45.58.41l.45-.08c.28-.06.52-.24.65-.49l1.83-3.5,1.85,3.5c.14.25.38.43.67.49l3.9.67-2.74,2.81c-.08.07-.15.16-.2.26l-3.57.87-3.36-.83c-.04-.1-.11-.2-.19-.28l-2.77-2.83,1.24-.21c.27-.05.46-.3.41-.58-.05-.27-.3-.45-.58-.41l-1.36.23c-.34.06-.62.3-.73.63s-.03.7.22.95l.98.98-1.97.42s0,0,0,0c-.01,0-.02.01-.03.01-.06.02-.11.04-.16.08,0,0-.01,0-.02,0l-2.01,1.64H1.11c-.52,0-.94.42-.94.95v3.93c0,.28.22.5.5.5s.5-.22.5-.5l-.06-3.88h1.76v1.67c0,.53.42.95.94.95h1.43c.13,0,.25-.03.37-.07.04-.02.07-.05.1-.07.07-.04.14-.08.19-.13.03-.03.05-.08.08-.11.04-.06.09-.11.12-.18.02-.05.02-.1.04-.15.02-.06.04-.12.05-.19l.9.2v5.07l-5.92.06v-.84c0-.28-.22-.5-.5-.5s-.5.22-.5.5v.84c0,.52.42.94.94.94h5.98v.2c0,.5.34.93.85,1.05l1.86.42s.07.01.11.01c.23,0,.44-.16.49-.39.06-.27-.11-.54-.38-.6l-1.85-.41s-.07-.04-.07-.08v-6.04l4.84,1.08.14.03s.07.01.11.01c.03,0,.06-.01.09-.02.03,0,.05,0,.07-.01.07-.02.13-.06.19-.11,0,0,0,0,0,0l2.38-2.4v3.57c0,.28.22.5.5.5s.5-.22.5-.5v-3.39l2.2,2.22c.06.06.12.09.2.12.02,0,.05,0,.07.01.03,0,.06.02.09.02.04,0,.08,0,.11-.01l2.14-.49c.07-.02.13-.05.18-.08.16-.11.24-.32.2-.52-.06-.27-.33-.44-.6-.38l-1.88.43-2.2-2.22,6.83-1.67,2.09,1.71s0,0,0,0l.62.51s0,0,0,0h0s.03.03.03.03l-1.87.42s0,0,0,0c0,0,0,0,0,0l-1.63.36c-.27.06-.44.32-.38.59.05.23.26.39.49.39.04,0,.07,0,.11-.01l1.03-.23v6.09s-.03.07-.07.08l-7.76,1.75v-4.07c0-.28-.22-.5-.5-.5s-.5.22-.5.5v4.06l-3.65-.89c-.27-.07-.54.1-.6.37-.07.27.1.54.37.6l4.26,1.04s.08.01.12.01c.04,0,.07,0,.11-.01l8.39-1.89c.49-.12.83-.56.83-1.05v-.06h6.13c.52,0,.95-.42.95-.94v-4.34c0-.28-.22-.5-.5-.5s-.5.22-.5.5l.05,4.28h-6.13v-5.26l1.05-.23v.03c0,.52.42.95.94.95h1.27c.52,0,.95-.42.95-.95v-1.54l1.88-.04v.73c0,.28.22.5.5.5ZM12.86,19.94l-7.22-1.61.35-.29s0,0,0,0l.49-.4s0,0,0,0l1.95-1.59,6.37,1.56.45.11-2.23,2.26-.16-.04ZM21.77,15.56l.13.03-.24.06.1-.1s.01,0,.02,0ZM11.3,15.72l-.74-.18.46-.1.28.28ZM3.87,19.43l-.06-1.67,1-.04-.6.49c-.15.12-.21.32-.17.5s.19.33.38.37l.81.18v.11s-1.36.05-1.36.05ZM27.8,19.43v-.25l.44-.1c.19-.04.33-.19.38-.37s-.02-.38-.17-.5l-.37-.3h.88l.05,1.47-1.21.05ZM2.05,13.12c-.19-.19-.26-.46-.18-.71.08-.26.3-.44.57-.47l1.02-.14.45-.93c.12-.24.36-.39.62-.39h0c.27,0,.51.15.62.39l.45.93,1.02.14c.27.04.48.22.57.47.08.25.01.53-.18.71l-.89.85c-.15.14-.39.14-.53-.01-.14-.15-.14-.39.01-.53l.81-.77-1.11-.15c-.12-.02-.23-.1-.29-.21l-.49-1.01-.49,1.01c-.05.11-.16.19-.29.21l-1.11.15.81.77c.09.09.13.21.11.34l-.2,1.1.98-.53c.11-.06.24-.06.35,0l.98.53-.02-.14c-.04-.2.1-.4.3-.44.21-.03.4.1.44.3l.05.25c.05.26-.06.53-.28.68-.12.09-.26.13-.41.13-.11,0-.22-.03-.33-.08l-.91-.49-.91.49c-.24.13-.52.11-.74-.05-.22-.16-.32-.42-.28-.68l.18-1.02-.74-.71ZM25.89,13.12c-.19-.19-.26-.46-.18-.71s.3-.44.57-.47l1.22-.17c.21-.02.39.12.42.32.03.21-.11.39-.32.42l-1.11.15.81.77c.09.09.13.21.11.34l-.2,1.1.98-.53c.11-.06.24-.06.35,0l.99.53-.2-1.1c-.02-.12.02-.25.11-.34l.8-.77-1.11-.15c-.12-.02-.23-.1-.29-.21l-.49-1.01-.03.05c-.09.19-.32.26-.5.17-.19-.09-.26-.31-.17-.5l.08-.15c.23-.48,1.01-.48,1.25,0l.45.93,1.02.14c.27.04.48.22.57.47s.01.53-.18.71l-.74.71.18,1.02c.05.26-.06.53-.28.68-.22.16-.5.18-.74.05l-.91-.49-.91.49c-.1.06-.22.08-.33.08-.14,0-.29-.04-.41-.13-.22-.16-.32-.42-.28-.68l.18-1.02-.74-.71ZM8.86,7.77c-.22-.16-.28-.47-.11-.7.16-.22.47-.28.7-.11l1.55,1.11c.22.16.28.47.11.7-.1.14-.25.21-.41.21-.1,0-.2-.03-.29-.09l-1.55-1.11ZM11.94,4.81c-.13-.25-.03-.55.22-.67.25-.13.55-.03.67.22l.87,1.7c.13.25.03.55-.22.67-.07.04-.15.05-.23.05-.18,0-.36-.1-.45-.27l-.87-1.7ZM16.02,5.5v-1.91c0-.28.23-.5.51-.5h0c.28,0,.5.23.5.5v1.91c0,.28-.23.5-.5.5h0c-.28,0-.5-.23-.5-.5ZM19.34,6.07l.88-1.69c.13-.25.43-.34.67-.21.25.13.34.43.21.67l-.88,1.69c-.09.17-.26.27-.44.27-.08,0-.16-.02-.23-.06-.25-.13-.34-.43-.21-.67ZM21.91,8.8c-.16-.23-.11-.54.12-.7l1.56-1.1c.22-.16.54-.11.7.12.16.23.11.54-.12.7l-1.56,1.1c-.09.06-.19.09-.29.09-.16,0-.31-.07-.41-.21Z"/>
</svg>