<?xml version="1.0" encoding="UTF-8"?>
<svg id="Capa_1" data-name="Capa 1" xmlns="http://www.w3.org/2000/svg" xmlns:xlink="http://www.w3.org/1999/xlink" viewBox="0 0 33 32">
  <defs>
    <style>
      .cls-1 {
        fill: url(#Degradado_sin_nombre_10);
      }
    </style>
    <linearGradient id="Degradado_sin_nombre_10" data-name="Degradado sin nombre 10" x1=".87" y1="16" x2="32.13" y2="16" gradientUnits="userSpaceOnUse">
      <stop offset="0" stop-color="#f5c230"/>
      <stop offset="0" stop-color="#ecc440"/>
      <stop offset=".32" stop-color="#fffa8a"/>
      <stop offset=".68" stop-color="#ddac17"/>
      <stop offset="1" stop-color="#ffff95"/>
    </linearGradient>
  </defs>
  <path class="cls-1" d="M31.7,10.56L21.85.84c-.57-.56-1.49-.56-2.06,0l-8.78,8.78c-.56.56-.58,1.45-.03,2.03l.88.94c.36.38.9.54,1.41.42l1.48-.36c.16-.04.32,0,.43.12l.74.74-10.23,10.18c-.29-.07-.59-.11-.9-.11-1.89,0-3.54,1.34-3.92,3.19-.05.27.12.54.39.59.27.05.54-.12.59-.39.28-1.39,1.52-2.39,2.93-2.39,1.65,0,3,1.34,3,3s-1.34,3-3,3c-1.26,0-2.39-.79-2.82-1.98-.09-.26-.38-.39-.64-.3-.26.09-.39.38-.3.64.57,1.58,2.08,2.64,3.76,2.64,2.2,0,4-1.79,4-4,0-.34-.05-.66-.13-.97l.65-.65c.14.23.31.43.53.57.02.02.07.05.08.06.04.03.08.06.12.09.2.19.28.48.23.76-.12.61.07,1.22.53,1.66.46.45,1.07.63,1.67.49.3-.05.61.03.8.22.04.04.06.07.11.13.31.46.81.75,1.37.8.06,0,.11,0,.16,0,.5,0,.98-.2,1.32-.56.19-.2.19-.51,0-.71-.2-.19-.51-.19-.71,0-.18.18-.43.28-.68.25-.26-.02-.48-.15-.66-.41-.06-.09-.12-.16-.2-.24-.43-.42-1.06-.6-1.7-.48-.38.09-.64-.11-.77-.23-.12-.12-.32-.38-.24-.76.11-.61-.08-1.25-.52-1.67-.08-.08-.16-.13-.3-.23-.24-.16-.38-.41-.39-.7,0-.29.13-.55.38-.72.1-.08.2-.15.27-.22.43-.44.61-1.05.49-1.69-.06-.27,0-.54.21-.76.21-.21.48-.3.78-.24.61.12,1.23-.08,1.66-.53.07-.07.15-.18.17-.22.03-.03.05-.05.07-.08.16-.24.41-.38.7-.39h.01c.28,0,.54.13.71.38.07.1.15.2.24.28.44.43,1.07.61,1.68.48.27-.06.54,0,.74.18.02.03.04.06.06.08.18.19.26.46.21.74-.1.62.1,1.23.54,1.66.07.07.17.14.3.23.05.03.1.06.13.1.18.18.27.42.25.68-.02.26-.16.49-.41.67-.09.07-.17.12-.25.21-.42.43-.6,1.08-.47,1.68.06.29-.02.57-.23.78-.19.2-.48.29-.76.24-.27-.06-.53.13-.58.41-.05.27.13.53.41.58.6.11,1.23-.09,1.65-.53.43-.44.62-1.07.49-1.68-.06-.28.02-.58.21-.77.04-.04.08-.07.14-.11.47-.32.76-.82.81-1.38.05-.56-.15-1.1-.55-1.48-.07-.07-.16-.13-.28-.21-.05-.04-.11-.07-.15-.11-.21-.2-.3-.48-.25-.77.11-.58-.05-1.14-.44-1.57-.03-.04-.06-.09-.09-.11-.44-.43-1.08-.6-1.68-.47-.27.06-.57-.03-.76-.22-.05-.05-.09-.1-.12-.14-.13-.19-.31-.35-.5-.48l3.05-3.04.88.88c.11.11.16.27.12.42l-.34,1.51c-.11.49.04,1.01.4,1.37l.79.77c.28.27.65.41,1.02.41s.74-.14,1.02-.42l1.4-1.37c.2-.19.2-.51,0-.71-.19-.2-.51-.2-.71,0l-1.4,1.37c-.18.17-.47.17-.64,0l-.79-.77c-.11-.11-.16-.27-.13-.43l.34-1.51c.11-.49-.04-1-.39-1.35l-4.57-4.57c-.36-.36-.89-.51-1.37-.39l-1.48.36c-.16.04-.33-.01-.44-.13l-.88-.94c-.17-.18-.17-.46.01-.64l7.27-7.27,1.38,1.38c.1.1.23.15.35.15s.26-.05.35-.15c.2-.2.2-.51,0-.71l-1.38-1.38.81-.81c.18-.18.47-.18.65,0l9.84,9.73c.09.09.14.2.14.33s-.05.24-.14.33l-.87.86-7.63-7.63c-.2-.2-.51-.2-.71,0s-.2.51,0,.71l7.62,7.62-4.31,4.23c-.2.19-.2.51,0,.71.19.2.51.2.71,0l5.89-5.79c.28-.28.44-.65.44-1.04,0-.39-.15-.76-.43-1.04ZM14.71,19.18c-.59.02-1.13.32-1.46.8,0,.01-.02.02-.03.03-.04.05-.07.11-.11.15-.19.2-.49.29-.75.24-.62-.12-1.24.07-1.73.58-.4.44-.56,1.06-.43,1.62.06.3-.02.58-.23.79-.04.04-.09.08-.13.11-.44.3-.71.77-.77,1.29l-.83.83c-.37-.64-.9-1.16-1.54-1.51l9.92-9.87,1.53,1.53-3.44,3.42ZM19.4,10.75c0,1.35,1.1,2.46,2.46,2.46s2.46-1.1,2.46-2.46-1.1-2.46-2.46-2.46-2.46,1.1-2.46,2.46ZM23.31,10.75c0,.8-.65,1.46-1.46,1.46s-1.46-.65-1.46-1.46.65-1.46,1.46-1.46,1.46.65,1.46,1.46ZM6.36,27.59c0-.86-.7-1.56-1.56-1.56s-1.56.7-1.56,1.56.7,1.56,1.56,1.56,1.56-.7,1.56-1.56ZM3.98,27.59c0-.45.36-.81.81-.81s.81.36.81.81-.36.81-.81.81-.81-.36-.81-.81ZM17,23.84l-2.71,3.05c-.09.11-.23.17-.37.17h0c-.15,0-.28-.07-.38-.18l-1.3-1.53c-.18-.21-.15-.53.06-.71.21-.18.53-.15.71.06l.92,1.09,2.33-2.62c.18-.21.5-.22.71-.04.21.18.23.5.04.71Z"/>
</svg>