<?xml version="1.0" encoding="UTF-8"?>
<svg id="Capa_1" data-name="Capa 1" xmlns="http://www.w3.org/2000/svg" xmlns:xlink="http://www.w3.org/1999/xlink" viewBox="0 0 33 32">
  <defs>
    <style>
      .cls-1 {
        fill: url(#Degradado_sin_nombre_10);
      }
    </style>
    <linearGradient id="Degradado_sin_nombre_10" data-name="Degradado sin nombre 10" x1="0" y1="16" x2="33" y2="16" gradientUnits="userSpaceOnUse">
      <stop offset="0" stop-color="#f5c230"/>
      <stop offset="0" stop-color="#ecc440"/>
      <stop offset=".32" stop-color="#fffa8a"/>
      <stop offset=".68" stop-color="#ddac17"/>
      <stop offset="1" stop-color="#ffff95"/>
    </linearGradient>
  </defs>
  <path class="cls-1" d="M3.95,15.18s-.05,0-.07,0c-.45-.06-.68-.43-.83-.68-.04-.07-.08-.13-.12-.18-.03-.04-.09-.07-.17-.11-.18-.1-.49-.26-.63-.68-.14-.42,0-.73.09-.94.03-.07.06-.14.07-.2.04-.2-.25-.85-.39-1.16-.09-.2-.17-.39-.23-.54-.07-.19-.12-.38-.17-.57-.02-.06-.03-.12-.05-.18-.07.02-.16.04-.22.05-.14.04-.27.06-.36.07-.13.01-.42.03-.67-.14-.13-.09-.21-.24-.21-.4v-.2c0-.09.02-.17.07-.25.08-.14.18-.27.27-.39.12-.16.23-.31.3-.47.19-.42.33-.9.47-1.41.15-.53.31-1.08.54-1.59.07-.15.33-.68.68-.9.19-.12.36-.15.48-.16.03,0,.09-.01.1-.02.06-.07.1-.17.14-.29.04-.13.09-.27.17-.42.23-.41.59-.57.91-.69l.9-.3c.07-.02.15-.03.23-.02.27.04.47.17.57.37.06.11.13.33,0,.61-.19.39-.62.47-.97.53-.12.02-.33.06-.39.1.02.06.22.36.33.52.05.08.11.16.16.25.33-.23.93-.43,1.76-.69.24-.07.45-.14.58-.19.21-.08.41-.16.62-.25-.26-.28-.43-.66-.45-.9-.05-.57.35-.83.56-.97.08-.05.25-.13.35-.13h.28c.07,0,.14.02.21.05.48.23.58.69.63.96.02.07.03.15.05.21.04.1.14.24.25.33.12.1.19.1.48.05.16-.03.37-.06.6-.04.89.06,1.75.74,2.02,1.62.06.18.07.38.08.57,0,.14.02.37.07.43.21.02.63-.07.97-.15.17-.04.34-.07.48-.09.26-.03.51.14.55.41.04.27-.14.51-.41.55-.13.02-.27.05-.43.08-.44.09-.94.2-1.36.13-.76-.13-.82-.89-.84-1.3,0-.13-.02-.27-.04-.34-.15-.49-.68-.91-1.17-.95-.11,0-.24.01-.37.03-.29.05-.67.11-1.07-.13-.04.03-.08.06-.13.07-.19.08-.39.16-.58.25-.33.14-.67.29-1.01.41-.14.05-.37.13-.63.21-.43.14-1.33.42-1.5.56-.17.17.13.71.33,1.07.1.18.19.35.25.49.24.56.56,1.33.28,1.99-.15.35-.44.62-.86.79-.59.23-1.15.14-1.56-.28-.65-.65-.77-1.9-.47-2.66.13-.33.33-.56.48-.74.22-.25.33-.38.29-.74-.01-.08-.15-.29-.25-.43-.08-.12-.18-.26-.26-.42-.03.04-.06.08-.09.11-.24.26-.51.3-.67.33-.05,0-.09.01-.11.02-.06.04-.21.25-.31.48-.2.44-.35.96-.49,1.46-.15.52-.3,1.05-.52,1.54-.06.13-.13.25-.2.37.32-.05.69-.04.92.29.03.04.05.08.06.12.05.16.09.32.14.48.04.17.09.33.15.5.05.13.12.29.2.47.26.58.55,1.24.45,1.74-.03.16-.09.29-.14.4-.07.16-.07.18-.05.24.01.04.02.05.16.12.13.07.3.16.45.33.08.09.15.2.22.31.05.08.13.21.17.24.27.04.44.28.4.54-.04.24-.25.41-.49.41ZM4.79,6.79s-.07.09-.11.13c-.13.15-.24.28-.31.45-.17.44-.09,1.27.25,1.62.1.1.24.18.52.07.26-.1.31-.22.32-.26.12-.29-.12-.86-.28-1.24-.05-.12-.12-.25-.2-.39-.06-.11-.13-.24-.2-.37ZM8.48,2.68s-.07.05-.08.06c.02.04.08.13.14.21,0-.02,0-.04-.01-.05-.02-.11-.04-.17-.05-.22ZM19.62,30.14c.11-.13.18-.28.24-.4.03-.06.06-.13.08-.15.02-.03.06-.05.09-.08.08-.07.16-.14.23-.21.05-.05.1-.14.16-.23,0-.01.02-.02.02-.04.01,0,.03,0,.04,0,.11-.01.23-.02.35-.06.2-.06.36-.18.51-.29.09-.07.18-.13.25-.16.1-.04.21-.06.32-.09.37-.08.93-.19,1.15-.88.06-.18.06-.32.05-.47.05,0,.09-.02.13-.02.09-.01.16-.03.22-.04.62-.17.99-.38,1.17-.66.18-.28.27-.84-.04-1.17-.21-.22-.52-.23-.99-.22h-.1c-.07,0-.13,0-.19.01-.1,0-.13,0-.15.05,0-.03,0-.12-.01-.18,0-.13,0-.28-.05-.45-.04-.15-.11-.28-.18-.4-.03-.05-.07-.14-.08-.16-.01-.09,0-.22.01-.36.03-.3.07-.71-.17-1.08.15.03.29.07.44.1.3.06.6.13.88.22.09.03.18.08.28.14.29.16.62.34.98.28.39-.06.56-.42.7-.7.05-.11.14-.29.19-.32.03-.01.13-.02.19-.03.09,0,.17-.02.25-.03.36-.07.71-.16,1.05-.27.26-.08.4-.35.32-.61-.08-.26-.35-.4-.61-.32-.31.09-.62.18-.95.24-.05,0-.1.01-.15.02-.16.01-.35.03-.55.13-.32.17-.48.49-.61.76-.02.04-.04.09-.07.14-.09-.04-.2-.1-.28-.14-.16-.08-.31-.16-.44-.21-.32-.11-.65-.18-.99-.25-.58-.12-1.13-.24-1.59-.55l-.55-.37c-.2-.14-.48-.1-.64.08-.4.46.26,1.31.27,1.31.17.21.39.37.6.53.17.12.35.25.43.37.06.08.06.21.03.47-.02.18-.04.39,0,.6.03.18.11.34.19.48.03.06.08.14.09.18.01.05.01.13.02.22,0,.27.01.83.64,1.03.24.08.42.06.56.05h.23c-.09.03-.23.08-.42.13-.03,0-.08.02-.12.02-.31.05-.84.14-.93.63-.03.16-.01.29,0,.38.01.08.01.1,0,.14-.04.12-.08.15-.43.23-.17.04-.34.07-.5.14-.17.07-.32.18-.45.27-.08.06-.18.13-.23.15-.04.01-.09.01-.14.02-.16.02-.35.03-.51.15-.12.09-.2.21-.29.35-.03.04-.05.09-.07.11-.03.03-.07.06-.11.09-.03.02-.06.05-.09.07-.01-.02-.03-.03-.05-.05-.35-.33-.94-.41-1.35-.17-.18.11-.28.25-.33.39-.02,0-.03-.02-.04-.02-.55-.29-.98-.6-1.13-.85-.15-.24-.64-1.65-.66-1.92,0-.04,0-.08,0-.13,0-.1,0-.21,0-.33-.07-.47-.8-1.08-1.25-1.37.28-.15.59-.41.65-.92.03-.24-.03-1.09-.29-1.43-.12-.15-.32-.22-.49-.22-.05-.21-.07-.44-.08-.69,0-.16-.02-.33-.04-.49-.02-.18-.05-.36-.08-.52-.09-.49-.15-.84.04-1.3.07-.16.25-.43.42-.66.29-.41.53-.76.59-1.08.1-.53-.21-1.02-.72-1.17-.44-.13-1.08.02-1.7.17-.26.06-.51.12-.69.14-.22.02-.41,0-.63,0-.16-.01-.32-.02-.51-.02-.2,0-.4.06-.57.12-.1.03-.3.1-.36.07-.09-.11-.21-.32-.32-.52-.1-.18-.21-.37-.31-.51-.23-.33-.49-.7-.73-.91-.28-.26-.51-.31-.87-.19-.03,0-.11-.06-.16-.09-.22-.14-.62-.39-1.16-.16-.11.05-.21.12-.29.18-.03.02-.08.05-.02.04-.06,0-.16-.03-.3-.09-.25-.11-.52,0-.63.25-.11.25.01.54.26.64.2.09.48.21.83.15.19-.03.33-.14.44-.23.03-.02.06-.05.08-.06.06-.02.08-.03.27.09.18.11.43.26.76.23.06,0,.11-.02.16-.03.17.17.43.54.56.72.08.12.17.28.26.43.13.24.27.49.42.67.45.53,1.07.34,1.4.23.11-.03.23-.07.29-.07.15,0,.28,0,.42.02.23.02.5.04.8,0,.21-.02.5-.09.8-.16.38-.09,1.01-.24,1.24-.12-.03.12-.28.48-.43.7-.21.3-.41.58-.52.84-.3.72-.2,1.29-.1,1.84.03.15.05.3.07.47.02.14.02.28.03.42.02.34.04.72.17,1.09.07.2.24.5.64.53.04.19.07.45.06.55-.01.12-.04.15-.35.28-.18.08-.38.16-.56.33-.28.25-.26.52-.23.65.1.38.5.47.74.53l.09.02c.2.08.83.62.9.76,0,.04,0,.08,0,.13,0,.09,0,.18,0,.26.04.42.58,1.99.81,2.36.32.51,1,.93,1.51,1.19.62.32.93.37,1.18.19.08-.06.14-.14.18-.23.04-.12.05-.23.05-.36.01,0,.03,0,.04,0-.02.13-.04.32.05.55.07.18.25.3.45.3h.2c.14,0,.28-.06.37-.17ZM29.2,21.18c.17-.08.34-.16.55-.27,1.12-.56,1.4-.78,1.53-.97.39-.61-.05-1.16-.27-1.43-.23-.28-.47-.54-.71-.81-.22-.24-.45-.49-.67-.77.07-.06.14-.14.18-.24.08-.18.07-.35.07-.49,0-.07,0-.15,0-.18.05-.12.15-.16.47-.26.12-.03.23-.07.34-.11.12-.05,1.05-.54,1.24-.79.2-.26.16-.5.13-.62-.12-.37-.51-.5-.77-.59-.04-.01-.09-.03-.1-.01-.01-.07.07-.29.23-.47.13-.15.31-.25.52-.37.37-.21.83-.47,1.04-1.07.02-.05.03-.1.03-.16v-.42c0-.08-.05-.21-.09-.28-.1-.19-.25-.45-.63-.58-.29-.09-.51-.07-.69-.06-.07,0-.15.01-.22,0-.3-.01-.6-.13-.71-.24.09-.12.22-.32.19-.62-.11-1.46-1.94-1.86-3.16-2.12-.31-.07-.58-.13-.78-.19-.07-.02-.1-.04-.1-.04h0s-.02-.06-.04-.09c-.03-.09-.07-.2-.14-.33.3-.04.64-.09.89-.17.22-.07.58-.29.59-.66,0-.19-.09-.43-.39-.54-.24-.09-.6-.08-1.23-.05h-.15c-.37.03-.74.06-1.11.1-.31.03-.62.06-.93.08-.67.04-1.5-.03-2.17.1-.5.1-.57.58-.6.76,0,.04,0,.07-.01.09-.17.31-1.11.52-1.65.44-.44-.07-.77-.29-1.14-.55-.33-.23-.68-.47-1.13-.61-.23-.07-.5-.11-.83-.13-.31-.03-.49.2-.51.46-.01.27.2.49.46.51.3.01.48.05.58.08.32.1.59.29.88.49.41.28.88.61,1.55.71.66.1,2.18-.07,2.65-.94.07-.13.09-.27.11-.38.56-.07,1.3-.02,1.88-.06.27-.02.54-.04.82-.07-.01.17.05.35.17.49.12.14.25.21.42.3.04.06.06.12.09.2.1.28.23.57.74.74.23.08.54.15.89.22.93.2,2.34.51,2.37,1.24-.1.13-.33.44-.11.94.28.61,1.12.81,1.57.83.12,0,.24,0,.35-.01.15-.01.22-.02.32.01,0,0,.02.03.04.06v.21c-.09.2-.27.31-.57.47-.26.14-.55.31-.78.59-.27.32-.53.82-.44,1.28.05.28.23.51.49.65.02,0,.04.02.06.03-.19.11-.39.22-.45.25-.08.03-.17.06-.26.08-.36.11-.86.25-1.09.82-.09.22-.09.43-.08.58-.13.06-.32.18-.39.43-.09.33.13.6.2.7.27.35.57.68.87,1.01.23.25.46.51.68.77.07.08.19.24.23.25-.05.05-.26.2-1.22.69-.16.08-.32.16-.48.23-.24.11-.35.4-.24.64.08.18.26.28.44.28.07,0,.14-.01.2-.05ZM22.86,5.71c.24-.02.69-.24.82-.56.08-.19.05-.39-.07-.54-.03-.03-.1-.09-.15-.11.01,0,.03.02.04.02-.08-.13-.24-.38-.53-.33-.06.01-.12.04-.17.08-.11.1-.23.21-.33.34-.22-.1-.66-.28-1,.14-.09.11-.1.26-.04.39.18.36.57.39.78.4.05,0,.09,0,.16.04.08.05.22.13.42.13.02,0,.03,0,.05,0Z"/>
</svg>